<?xml version="1.0" encoding="UTF-8" standalone="no"?> <!-- Created with Vectornator for iOS (http://vectornator.io/) --><!DOCTYPE svg PUBLIC "-//W3C//DTD SVG 1.1//EN" "http://www.w3.org/Graphics/SVG/1.1/DTD/svg11.dtd">
<svg height="100%" style="fill-rule:evenodd;clip-rule:evenodd;stroke-linecap:round;stroke-linejoin:round;" xmlns:xlink="http://www.w3.org/1999/xlink" xmlns="http://www.w3.org/2000/svg" xml:space="preserve" width="100%" xmlns:vectornator="http://vectornator.io" version="1.1" viewBox="0 0 56.3174 65.5522">
<metadata>
<vectornator:setting key="RulersVisible" value="1"/>
<vectornator:setting key="Units" value="Points"/>
<vectornator:setting key="DynamicGuides" value="1"/>
<vectornator:setting key="GuidesVisible" value="1"/>
<vectornator:setting key="CMYKEnabledKey" value="0"/>
<vectornator:setting key="SnapToGuides" value="1"/>
<vectornator:setting key="GridSpacing" value="36"/>
</metadata>
<defs>
<path d="M48.8502+15.1625C58.5778+26.5901+57.1998+43.7398+45.7722+53.4675C34.3447+63.1952+17.195+61.8172+7.46729+50.3896C-2.26039+38.962-0.88237+21.8123+10.5452+12.0846C21.9728+2.35696+39.1225+3.73498+48.8502+15.1625Z" id="Mask"/>
<linearGradient y1="0.066" id="LinearGradient" x1="0.066" y2="0.934" x2="0.933" gradientUnits="userSpaceOnUse" gradientTransform="matrix(1 0 0 1 -5040.46 4.97807)">
<stop stop-color="#93f7cd" offset="0"/>
<stop stop-color="#8bebd1" offset="0.08"/>
<stop stop-color="#73c6de" offset="0.35"/>
<stop stop-color="#61ace7" offset="0.6"/>
<stop stop-color="#579cec" offset="0.83"/>
<stop stop-color="#5396ee" offset="1"/>
</linearGradient>
<linearGradient y1="0.5" id="LinearGradient_2" x1="0" y2="0.5" x2="1" gradientUnits="userSpaceOnUse" gradientTransform="matrix(1 0 0 1 -6071.53 -170.872)">
<stop stop-color="#f5da67" offset="0"/>
<stop stop-color="#f9e17c" offset="0.39"/>
<stop stop-color="#ffeb99" offset="1"/>
</linearGradient>
<linearGradient y1="0.5" id="LinearGradient_3" x1="0" y2="0.5" x2="1" gradientUnits="userSpaceOnUse" gradientTransform="matrix(1 0 0 1 3.42593 9.4531)">
<stop stop-color="#f5da67" offset="0"/>
<stop stop-color="#f5cb32" offset="0.61"/>
<stop stop-color="#f5c215" offset="1"/>
</linearGradient>
<linearGradient y1="-0.508" id="LinearGradient_4" x1="-0.023" y2="-1.085" x2="0.554" gradientUnits="userSpaceOnUse" gradientTransform="matrix(1 0 0 1 -4902 -524.956)">
<stop stop-color="#2c9698" offset="0"/>
<stop stop-color="#25a7a8" offset="0.34"/>
<stop stop-color="#1ac4c4" offset="1"/>
</linearGradient>
<linearGradient y1="0.5" id="LinearGradient_5" x1="1" y2="0.5" x2="0" gradientUnits="userSpaceOnUse" gradientTransform="matrix(1 0 0 1 -4902 -206.585)">
<stop stop-color="#2c9698" offset="0"/>
<stop stop-color="#25a7a8" offset="0.34"/>
<stop stop-color="#1ac4c4" offset="1"/>
</linearGradient>
</defs>
<g id="Logo" vectornator:layerName="Logo">
<g opacity="1" vectornator:mask="#Mask">
<clipPath id="ClipPath">
<use xlink:href="#Mask" fill="none" overflow="visible"/>
</clipPath>
<g clip-path="url(#ClipPath)">
<g opacity="1">
<path d="M55.955+24.3601L55.955+41.1901C55.955+46.7721+55.955+49.5611+55.005+52.5661C53.8121+55.8464+51.2283+58.4302+47.948+59.6231C44.948+60.5731+42.153+60.5731+36.572+60.5731L19.7401+60.5731C14.1591+60.5731+11.3701+60.5731+8.36512+59.6231C5.08484+58.4302+2.50095+55.8464+1.30812+52.5661C0.358122+49.5661+0.358122+46.7721+0.358122+41.1901L0.358122+24.3601C0.358122+18.7791+0.358122+15.9901+1.30812+12.9851C2.50139+9.70436+5.08607+7.12041+8.36712+5.92807C11.3671+4.97807+14.1611+4.97807+19.7421+4.97807L36.5721+4.97807C42.1531+4.97807+44.9441+4.97807+47.9481+5.92807C51.2292+7.12041+53.8139+9.70436+55.0071+12.9851C55.9571+15.9851+55.9571+18.7791+55.9571+24.3601" opacity="1" fill="url(#LinearGradient)"/>
<path d="M53.9574+23.2681C52.2417+26.2677+48.5755+27.5412+45.3697+26.2511C42.1638+24.961+40.4017+21.5031+41.2419+18.1512C42.0822+14.7992+45.2671+12.5814+48.7024+12.9561C49.0397+12.9911+49.3338+13.2006+49.4772+13.5078C49.6206+13.8151+49.5922+14.1751+49.4024+14.4561C48.4629+15.8856+48.3636+17.7097+49.1425+19.2327C49.9214+20.7557+51.4584+21.743+53.1674+21.8181C53.5042+21.8345+53.8081+22.0252+53.9695+22.3213C54.1308+22.6174+54.1262+22.9762+53.9574+23.2681Z" opacity="1" fill="#fff6cf"/>
<path d="M53.9555+23.2221C53.8418+23.4179+53.625+23.5302+53.3995+23.5101C51.0825+23.2752+49.0403+21.8875+47.9688+19.8198C46.8974+17.7521+46.9412+15.2834+48.0855+13.2551C48.2002+13.056+48.4208+12.9426+48.6495+12.9651L48.7405+12.9741C49.0684+13.0119+49.3527+13.2185+49.49+13.5188C49.6272+13.8191+49.5974+14.1693+49.4115+14.4421C48.4625+15.8702+48.3568+17.6988+49.1346+19.2268C49.9125+20.7548+51.4534+21.7451+53.1665+21.8181C53.4954+21.8291+53.7948+22.0111+53.956+22.298C54.1173+22.585+54.1171+22.9353+53.9555+23.2221Z" opacity="1" fill="url(#LinearGradient_2)"/>
<path d="M21.5819+17.4751L20.4589+17.4751C20.0597+17.4545+19.7466+17.1248+19.7466+16.7251C19.7466+16.3254+20.0597+15.9957+20.4589+15.9751L21.5849+15.9751C21.9841+15.9957+22.2972+16.3254+22.2972+16.7251C22.2972+17.1248+21.9841+17.4545+21.5849+17.4751L21.5819+17.4751Z" opacity="1" fill="#ffec8f"/>
<path d="M6.37391+3.21307C5.95954+3.21252+5.62391+2.87645+5.62391+2.46207L5.62391+1.33607C5.62391+0.921309+5.96015+0.585075+6.37491+0.585075C6.78968+0.585074+7.12591+0.921309+7.12591+1.33607L7.12591+2.46207C7.12591+2.66143+7.04665+2.8526+6.9056+2.99347C6.76454+3.13433+6.57326+3.21334+6.37391+3.21307Z" opacity="1" fill="#ffec8f"/>
<path d="M17.0575+10.3561C16.9166+10.2153+16.8375+10.0243+16.8375+9.8251C16.8375+9.62593+16.9166+9.43493+17.0575+9.2941L17.8575+8.4941C17.9979+8.35332+18.1886+8.27417+18.3875+8.2741C18.5867+8.27412+18.7777+8.35326+18.9185+8.4941C19.2106+8.78783+19.2106+9.26237+18.9185+9.5561L18.1185+10.3561C17.8252+10.6493+17.3498+10.6493+17.0565+10.3561L17.0575+10.3561Z" opacity="1" fill="#ffec8f"/>
<path d="M3.79138+10.5821C3.59207+10.5827+3.40082+10.5035+3.26038+10.3621L2.46038+9.5621C2.16781+9.26894+2.16781+8.79426+2.46038+8.5011C2.60108+8.36004+2.79213+8.28076+2.99138+8.28076C3.19062+8.28076+3.38167+8.36004+3.52238+8.5011L4.32238+9.3011C4.5354+9.51633+4.59855+9.83833+4.48259+10.1181C4.36663+10.3978+4.0942+10.5807+3.79138+10.5821Z" opacity="1" fill="#ffec8f"/>
<path d="M0.938837+17.5221L-0.187163+17.5221C-0.58634+17.5015-0.899421+17.1718-0.899421+16.7721C-0.899421+16.3724-0.58634+16.0427-0.187163+16.0221L0.938837+16.0221C1.21603+16.0078+1.47851+16.1475+1.62141+16.3855C1.7643+16.6234+1.7643+16.9208+1.62141+17.1587C1.47851+17.3967+1.21603+17.5364+0.938837+17.5221Z" opacity="1" fill="#ffec8f"/>
<path d="M17.8749+24.9831L17.0749+24.1831C16.7811+23.8901+16.7804+23.4144+17.0734+23.1206C17.3664+22.8268+17.8421+22.8261+18.1359+23.1191L18.9359+23.9191C19.2129+24.2147+19.2055+24.6768+18.9192+24.9634C18.6328+25.25+18.1708+25.2579+17.8749+24.9811L17.8749+24.9831Z" opacity="1" fill="#ffec8f"/>
<path d="M10.6981+28.3601C10.499+28.3601+10.3081+28.2809+10.1674+28.1401C10.0267+27.9992+9.94785+27.8082+9.94811+27.6091L9.94811+26.4831C9.9338+26.2059+10.0735+25.9434+10.3115+25.8005C10.5494+25.6576+10.8468+25.6576+11.0847+25.8005C11.3227+25.9434+11.4624+26.2059+11.4481+26.4831L11.4481+27.6091C11.4481+27.8085+11.3689+27.9996+11.2278+28.1405C11.0867+28.2814+10.8955+28.3604+10.6961+28.3601L10.6981+28.3601Z" opacity="1" fill="#ffec8f"/>
<path d="M2.45251+24.9761C2.15927+24.6828+2.15927+24.2074+2.45251+23.9141L3.25251+23.1141C3.54577+22.8211+4.02102+22.8213+4.31401+23.1146C4.607+23.4079+4.60677+23.8831+4.31351+24.1761L3.51351+24.9761C3.22012+25.2681+2.7459+25.2681+2.45251+24.9761Z" opacity="1" fill="#ffec8f"/>
<path d="M3.42593+16.7481C3.42593+12.7192+6.69201+9.4531+10.7209+9.4531C14.7498+9.4531+18.0159+12.7192+18.0159+16.7481C18.0159+20.777+14.7498+24.0431+10.7209+24.0431C6.69201+24.0431+3.42593+20.777+3.42593+16.7481Z" opacity="1" fill="url(#LinearGradient_3)"/>
<path d="M16.0277+17.2401C14.8222+14.2508+12.0966+12.1454+8.8997+11.7341C8.41186+11.6737+8.03489+11.2766+7.99984+10.7863C7.96478+10.296+8.28142+9.84933+8.7557+9.7201C10.9737+9.10922+13.3499+9.57722+15.1706+10.9835C16.9913+12.3899+18.0444+14.5707+18.0137+16.8711C18.007+17.362+17.6547+17.78+17.172+17.8697C16.6892+17.9593+16.2103+17.6959+16.0277+17.2401Z" opacity="1" fill="#ffec8f"/>
<path d="M41.8637+37.5181L53.7637+49.4181C57.7097+53.3651+59.6837+55.3371+61.1367+58.1331C62.6127+61.296+62.6127+64.9501+61.1367+68.1131C59.6837+70.9131+57.7097+72.8821+53.7637+76.8281L41.8637+88.7281C37.9177+92.6751+35.9437+94.6471+33.1477+96.1001C29.9847+97.5761+26.3306+97.5761+23.1677+96.1001C20.3677+94.6481+18.3987+92.6751+14.4517+88.7281L2.55166+76.8281C-1.39434+72.8821-3.36634+70.9091-4.81834+68.1131C-6.29436+64.9501-6.29436+61.296-4.81834+58.1331C-3.36634+55.3331-1.39334+53.3641+2.55366+49.4181L14.4537+37.5181C18.4007+33.5721+20.3737+31.5991+23.1707+30.1461C26.3338+28.671+29.9875+28.671+33.1507+30.1461C35.9507+31.5991+37.9187+33.5721+41.8647+37.5171" opacity="1" fill="url(#LinearGradient_4)"/>
<path d="M41.8591+32.1389L53.7591+44.0389C57.7051+47.9859+59.6781+49.9579+61.1321+52.7539C62.6081+55.9168+62.6081+59.571+61.1321+62.7339C59.6791+65.5339+57.7051+67.5029+53.7591+71.4489L41.8591+83.3489C37.9131+87.2959+35.9391+89.2689+33.1441+90.7209C29.981+92.1962+26.3272+92.1962+23.1641+90.7209C20.3641+89.2689+18.3951+87.2959+14.4491+83.3489L2.54912+71.4489C-1.39688+67.5029-3.36988+65.5299-4.82188+62.7339C-6.2979+59.571-6.2979+55.9168-4.82188+52.7539C-3.36988+49.9539-1.39688+47.9849+2.55012+44.0389L14.4501+32.1389C18.3971+28.1929+20.3691+26.2199+23.1661+24.7669C26.3293+23.2919+29.983+23.2919+33.1461+24.7669C35.9461+26.2199+37.9141+28.1929+41.8601+32.1379" opacity="1" fill="url(#LinearGradient_5)"/>
<path d="M41.8637+42.4581L53.7637+54.3581C57.7097+58.3051+59.6827+60.2771+61.1367+63.0731C62.6127+66.236+62.6127+69.8901+61.1367+73.0531C59.6837+75.8531+57.7097+77.8221+53.7637+81.7681L41.8637+93.6681C37.9177+97.6151+35.9437+99.5871+33.1487+101.04C29.9856+102.515+26.3318+102.515+23.1687+101.04C20.3687+99.5881+18.3997+97.6151+14.4537+93.6681L2.55366+81.7681C-1.39234+77.8221-3.36534+75.8491-4.81734+73.0531C-6.29336+69.8901-6.29336+66.236-4.81734+63.0731C-3.36534+60.2731-1.39234+58.3041+2.55466+54.3581L14.4547+42.4581C18.4017+38.5121+20.3737+36.5391+23.1707+35.0861C26.3338+33.611+29.9875+33.611+33.1507+35.0861C35.9507+36.5391+37.9187+38.5121+41.8647+42.4581" opacity="1" fill="#ffffff"/>
<path d="M41.8601+38.8318L53.7601+50.7318C57.7061+54.6788+59.6801+56.6508+61.1331+59.4468C62.6091+62.6097+62.6091+66.2638+61.1331+69.4268C59.6801+72.2268+57.7061+74.1958+53.7601+78.1418L41.8601+90.0418C37.9141+93.9888+35.9401+95.9608+33.1441+97.4138C29.9812+98.8898+26.3271+98.8898+23.1641+97.4138C20.3641+95.9618+18.3951+93.9888+14.4481+90.0418L2.54812+78.1418C-1.39788+74.1958-3.36988+72.2218-4.82188+69.4268C-6.2979+66.2638-6.2979+62.6097-4.82188+59.4468C-3.36988+56.6468-1.39688+54.6778+2.55012+50.7318L14.4501+38.8318C18.3971+34.8858+20.3701+32.9128+23.1671+31.4598C26.3303+29.9847+29.984+29.9847+33.1471+31.4598C35.9471+32.9128+37.9151+34.8858+41.8611+38.8308" opacity="1" fill="#f4c132"/>
</g>
<path d="M19.7401+4.97807L36.5701+4.97807C42.1521+4.97807+44.9431+4.97807+47.9461+5.92707C51.226+7.12062+53.8096+9.70424+55.0031+12.9841C55.9531+15.9841+55.9531+18.7791+55.9531+24.3601L55.9531+41.1901C55.9531+46.7711+55.9531+49.5611+55.0031+52.5661C53.8103+55.8464+51.2264+58.4302+47.9461+59.6231C44.9461+60.5731+42.1521+60.5731+36.5701+60.5731L19.7401+60.5731C14.1591+60.5731+11.3701+60.5731+8.36512+59.6231C5.08484+58.4302+2.50095+55.8464+1.30812+52.5661C0.358122+49.5661+0.358122+46.7721+0.358122+41.1901L0.358122+24.3601C0.358122+18.7791+0.358122+15.9891+1.30812+12.9841C2.50179+9.70432+5.08537+7.12074+8.36512+5.92707C11.3651+4.97807+14.1591+4.97807+19.7401+4.97807" opacity="1" fill="none"/>
</g>
</g>
</g>
</svg>
