<?xml version="1.0" encoding="UTF-8" standalone="no"?> <!-- Created with Vectornator for iOS (http://vectornator.io/) --><!DOCTYPE svg PUBLIC "-//W3C//DTD SVG 1.1//EN" "http://www.w3.org/Graphics/SVG/1.1/DTD/svg11.dtd">
<svg height="100%" style="fill-rule:evenodd;clip-rule:evenodd;stroke-linecap:round;stroke-linejoin:round;" xmlns:xlink="http://www.w3.org/1999/xlink" xmlns="http://www.w3.org/2000/svg" xml:space="preserve" width="100%" xmlns:vectornator="http://vectornator.io" version="1.1" viewBox="0 0 274.01 83.799">
<metadata>
<vectornator:setting key="RulersVisible" value="1"/>
<vectornator:setting key="Units" value="Points"/>
<vectornator:setting key="DynamicGuides" value="1"/>
<vectornator:setting key="GuidesVisible" value="1"/>
<vectornator:setting key="CMYKEnabledKey" value="0"/>
<vectornator:setting key="SnapToGuides" value="1"/>
<vectornator:setting key="GridSpacing" value="36"/>
</metadata>
<defs>
<path d="M267.426+9.55948C277.154+20.987+275.776+38.1368+264.349+47.8644C252.921+57.5921+235.771+56.2141+226.044+44.7865C216.316+33.359+217.694+16.2092+229.121+6.48157C240.549-3.24611+257.699-1.86809+267.426+9.55948Z" id="Mask"/>
<linearGradient y1="0.066" id="LinearGradient" x1="0.066" y2="0.934" x2="0.933" gradientUnits="userSpaceOnUse" gradientTransform="matrix(1 0 0 1 -4821.88 -0.625)">
<stop stop-color="#93f7cd" offset="0"/>
<stop stop-color="#8bebd1" offset="0.08"/>
<stop stop-color="#73c6de" offset="0.35"/>
<stop stop-color="#61ace7" offset="0.6"/>
<stop stop-color="#579cec" offset="0.83"/>
<stop stop-color="#5396ee" offset="1"/>
</linearGradient>
<linearGradient y1="0.5" id="LinearGradient_2" x1="0" y2="0.5" x2="1" gradientUnits="userSpaceOnUse" gradientTransform="matrix(1 0 0 1 -5852.95 -176.475)">
<stop stop-color="#f5da67" offset="0"/>
<stop stop-color="#f9e17c" offset="0.39"/>
<stop stop-color="#ffeb99" offset="1"/>
</linearGradient>
<linearGradient y1="0.5" id="LinearGradient_3" x1="0" y2="0.5" x2="1" gradientUnits="userSpaceOnUse" gradientTransform="matrix(1 0 0 1 222.002 3.85003)">
<stop stop-color="#f5da67" offset="0"/>
<stop stop-color="#f5cb32" offset="0.61"/>
<stop stop-color="#f5c215" offset="1"/>
</linearGradient>
<linearGradient y1="-0.508" id="LinearGradient_4" x1="-0.023" y2="-1.085" x2="0.554" gradientUnits="userSpaceOnUse" gradientTransform="matrix(1 0 0 1 -4683.42 -530.559)">
<stop stop-color="#2c9698" offset="0"/>
<stop stop-color="#25a7a8" offset="0.34"/>
<stop stop-color="#1ac4c4" offset="1"/>
</linearGradient>
<linearGradient y1="0.5" id="LinearGradient_5" x1="1" y2="0.5" x2="0" gradientUnits="userSpaceOnUse" gradientTransform="matrix(1 0 0 1 -4683.43 -212.188)">
<stop stop-color="#2c9698" offset="0"/>
<stop stop-color="#25a7a8" offset="0.34"/>
<stop stop-color="#1ac4c4" offset="1"/>
</linearGradient>
</defs>
<g id="Logo" vectornator:layerName="Logo">
<g opacity="1" vectornator:mask="#Mask">
<clipPath id="ClipPath">
<use xlink:href="#Mask" fill="none" overflow="visible"/>
</clipPath>
<g clip-path="url(#ClipPath)">
<g opacity="1">
<path d="M274.531+18.757L274.531+35.587C274.531+41.169+274.531+43.958+273.581+46.963C272.388+50.2433+269.805+52.8272+266.524+54.02C263.524+54.97+260.729+54.97+255.148+54.97L238.316+54.97C232.735+54.97+229.946+54.97+226.941+54.02C223.661+52.8272+221.077+50.2433+219.884+46.963C218.934+43.963+218.934+41.169+218.934+35.587L218.934+18.757C218.934+13.176+218.934+10.387+219.884+7.382C221.078+4.10129+223.662+1.51733+226.943+0.324999C229.943-0.625001+232.737-0.625001+238.318-0.625001L255.148-0.625001C260.729-0.625001+263.52-0.625001+266.524+0.324999C269.805+1.51733+272.39+4.10129+273.583+7.382C274.533+10.382+274.533+13.176+274.533+18.757" opacity="1" fill="url(#LinearGradient)"/>
<path d="M272.534+17.665C270.818+20.6647+267.152+21.9381+263.946+20.6481C260.74+19.358+258.978+15.9001+259.818+12.5481C260.658+9.19612+263.843+6.97831+267.279+7.35299C267.616+7.38801+267.91+7.59748+268.053+7.90475C268.197+8.21202+268.168+8.57201+267.979+8.85299C267.039+10.2825+266.94+12.1066+267.719+13.6296C268.498+15.1527+270.035+16.1399+271.744+16.215C272.08+16.2314+272.384+16.4221+272.546+16.7182C272.707+17.0143+272.703+17.3731+272.534+17.665Z" opacity="1" fill="#fff6cf"/>
<path d="M272.532+17.619C272.418+17.8148+272.201+17.9271+271.976+17.907C269.659+17.6722+267.617+16.2844+266.545+14.2167C265.474+12.149+265.518+9.68034+266.662+7.65199C266.776+7.45296+266.997+7.33952+267.226+7.36199L267.317+7.37099C267.645+7.40885+267.929+7.61547+268.066+7.91575C268.203+8.21602+268.174+8.5662+267.988+8.83899C267.039+10.2671+266.933+12.0957+267.711+13.6237C268.489+15.1517+270.03+16.142+271.743+16.215C272.072+16.226+272.371+16.408+272.532+16.695C272.694+16.9819+272.693+17.3322+272.532+17.619Z" opacity="1" fill="url(#LinearGradient_2)"/>
<path d="M240.158+11.872L239.035+11.872C238.636+11.8514+238.323+11.5217+238.323+11.122C238.323+10.7223+238.636+10.3927+239.035+10.372L240.161+10.372C240.56+10.3927+240.873+10.7223+240.873+11.122C240.873+11.5217+240.56+11.8514+240.161+11.872L240.158+11.872Z" opacity="1" fill="#ffec8f"/>
<path d="M224.95-2.39C224.536-2.39055+224.2-2.72662+224.2-3.141L224.2-4.267C224.2-4.68177+224.536-5.018+224.951-5.018C225.366-5.018+225.702-4.68177+225.702-4.267L225.702-3.141C225.702-2.94165+225.623-2.75048+225.482-2.60961C225.341-2.46874+225.15-2.38973+224.95-2.39Z" opacity="1" fill="#ffec8f"/>
<path d="M235.634+4.75303C235.493+4.61221+235.414+4.4212+235.414+4.22203C235.414+4.02286+235.493+3.83186+235.634+3.69103L236.434+2.89103C236.574+2.75025+236.765+2.6711+236.964+2.67103C237.163+2.67105+237.354+2.75019+237.495+2.89103C237.787+3.18476+237.787+3.6593+237.495+3.95303L236.695+4.75303C236.401+5.04626+235.926+5.04626+235.633+4.75303L235.634+4.75303Z" opacity="1" fill="#ffec8f"/>
<path d="M222.368+4.97903C222.168+4.97968+221.977+4.90044+221.837+4.75903L221.037+3.95903C220.744+3.66587+220.744+3.19119+221.037+2.89803C221.177+2.75697+221.368+2.67769+221.568+2.67769C221.767+2.67769+221.958+2.75697+222.099+2.89803L222.899+3.69803C223.112+3.91325+223.175+4.23526+223.059+4.515C222.943+4.79474+222.67+4.97763+222.368+4.97903Z" opacity="1" fill="#ffec8f"/>
<path d="M219.515+11.919L218.389+11.919C217.99+11.8984+217.677+11.5687+217.677+11.169C217.677+10.7693+217.99+10.4397+218.389+10.419L219.515+10.419C219.792+10.4047+220.055+10.5444+220.198+10.7824C220.341+11.0203+220.341+11.3177+220.198+11.5557C220.055+11.7936+219.792+11.9333+219.515+11.919Z" opacity="1" fill="#ffec8f"/>
<path d="M236.451+19.38L235.651+18.58C235.357+18.287+235.357+17.8113+235.65+17.5175C235.943+17.2237+236.418+17.223+236.712+17.516L237.512+18.316C237.789+18.6116+237.782+19.0737+237.495+19.3603C237.209+19.647+236.747+19.6548+236.451+19.378L236.451+19.38Z" opacity="1" fill="#ffec8f"/>
<path d="M229.274+22.757C229.075+22.757+228.884+22.6779+228.744+22.537C228.603+22.3961+228.524+22.2051+228.524+22.006L228.524+20.88C228.51+20.6028+228.65+20.3404+228.888+20.1975C229.126+20.0546+229.423+20.0546+229.661+20.1975C229.899+20.3404+230.039+20.6028+230.024+20.88L230.024+22.006C230.024+22.2054+229.945+22.3966+229.804+22.5374C229.663+22.6783+229.472+22.7573+229.272+22.757L229.274+22.757Z" opacity="1" fill="#ffec8f"/>
<path d="M221.029+19.373C220.736+19.0798+220.736+18.6043+221.029+18.311L221.829+17.511C222.122+17.218+222.597+17.2183+222.89+17.5115C223.183+17.8048+223.183+18.28+222.89+18.573L222.09+19.373C221.796+19.665+221.322+19.665+221.029+19.373Z" opacity="1" fill="#ffec8f"/>
<path d="M222.002+11.145C222.002+7.11611+225.268+3.85003+229.297+3.85003C233.326+3.85003+236.592+7.11611+236.592+11.145C236.592+15.1739+233.326+18.44+229.297+18.44C225.268+18.44+222.002+15.1739+222.002+11.145Z" opacity="1" fill="url(#LinearGradient_3)"/>
<path d="M234.604+11.637C233.398+8.64774+230.673+6.54233+227.476+6.13103C226.988+6.07059+226.611+5.67354+226.576+5.18322C226.541+4.6929+226.858+4.24626+227.332+4.11703C229.55+3.50614+231.926+3.97414+233.747+5.38047C235.568+6.78681+236.621+8.96765+236.59+11.268C236.583+11.759+236.231+12.1769+235.748+12.2666C235.266+12.3563+234.787+12.0928+234.604+11.637Z" opacity="1" fill="#ffec8f"/>
<path d="M260.44+31.915L272.34+43.815C276.286+47.762+278.26+49.734+279.713+52.53C281.189+55.6929+281.189+59.347+279.713+62.51C278.26+65.31+276.286+67.279+272.34+71.225L260.44+83.125C256.494+87.072+254.52+89.044+251.724+90.497C248.561+91.973+244.907+91.973+241.744+90.497C238.944+89.045+236.975+87.072+233.028+83.125L221.128+71.225C217.182+67.279+215.21+65.306+213.758+62.51C212.282+59.347+212.282+55.6929+213.758+52.53C215.21+49.73+217.183+47.761+221.13+43.815L233.03+31.915C236.977+27.969+238.95+25.996+241.747+24.543C244.91+23.0679+248.564+23.0679+251.727+24.543C254.527+25.996+256.495+27.969+260.441+31.914" opacity="1" fill="url(#LinearGradient_4)"/>
<path d="M260.435+26.5358L272.335+38.4358C276.281+42.3828+278.254+44.3548+279.708+47.1508C281.184+50.3138+281.184+53.9679+279.708+57.1308C278.255+59.9308+276.281+61.8998+272.335+65.8458L260.435+77.7458C256.489+81.6928+254.515+83.6658+251.72+85.1178C248.557+86.5932+244.903+86.5932+241.74+85.1178C238.94+83.6658+236.971+81.6928+233.025+77.7458L221.125+65.8458C217.179+61.8998+215.206+59.9268+213.754+57.1308C212.278+53.9679+212.278+50.3138+213.754+47.1508C215.206+44.3508+217.179+42.3818+221.126+38.4358L233.026+26.5358C236.973+22.5898+238.945+20.6168+241.742+19.1638C244.906+17.6888+248.559+17.6888+251.722+19.1638C254.522+20.6168+256.49+22.5898+260.436+26.5348" opacity="1" fill="url(#LinearGradient_5)"/>
<path d="M260.44+36.855L272.34+48.755C276.286+52.702+278.259+54.674+279.713+57.47C281.189+60.6329+281.189+64.287+279.713+67.45C278.26+70.25+276.286+72.219+272.34+76.165L260.44+88.065C256.494+92.012+254.52+93.984+251.725+95.437C248.562+96.9123+244.908+96.9123+241.745+95.437C238.945+93.985+236.976+92.012+233.03+88.065L221.13+76.165C217.184+72.219+215.211+70.246+213.759+67.45C212.283+64.287+212.283+60.6329+213.759+57.47C215.211+54.67+217.184+52.701+221.131+48.755L233.031+36.855C236.978+32.909+238.95+30.936+241.747+29.483C244.91+28.0079+248.564+28.0079+251.727+29.483C254.527+30.936+256.495+32.909+260.441+36.855" opacity="1" fill="#ffffff"/>
<path d="M260.436+33.2287L272.336+45.1287C276.282+49.0757+278.256+51.0477+279.709+53.8437C281.185+57.0066+281.185+60.6608+279.709+63.8237C278.256+66.6237+276.282+68.5927+272.336+72.5387L260.436+84.4387C256.49+88.3857+254.516+90.3577+251.72+91.8107C248.557+93.2867+244.903+93.2867+241.74+91.8107C238.94+90.3587+236.971+88.3857+233.024+84.4387L221.124+72.5387C217.178+68.5927+215.206+66.6187+213.754+63.8237C212.278+60.6608+212.278+57.0066+213.754+53.8437C215.206+51.0437+217.179+49.0747+221.126+45.1287L233.026+33.2287C236.973+29.2827+238.946+27.3097+241.743+25.8567C244.907+24.3817+248.56+24.3817+251.723+25.8567C254.523+27.3097+256.491+29.2827+260.437+33.2277" opacity="1" fill="#f4c132"/>
</g>
<path d="M238.316-0.625L255.146-0.625C260.728-0.625+263.519-0.625+266.522+0.324C269.802+1.51755+272.386+4.10117+273.579+7.381C274.529+10.381+274.529+13.176+274.529+18.757L274.529+35.587C274.529+41.168+274.529+43.958+273.579+46.963C272.387+50.2433+269.803+52.8272+266.522+54.02C263.522+54.97+260.728+54.97+255.146+54.97L238.316+54.97C232.735+54.97+229.946+54.97+226.941+54.02C223.661+52.8272+221.077+50.2433+219.884+46.963C218.934+43.963+218.934+41.169+218.934+35.587L218.934+18.757C218.934+13.176+218.934+10.386+219.884+7.381C221.078+4.10124+223.662+1.51766+226.941+0.323999C229.941-0.625001+232.735-0.625001+238.316-0.625001" opacity="1" fill="none"/>
</g>
</g>
<path d="M12.471+51.049C8.53245+48.8853+5.32546+45.6004+3.257+41.611C1.00238+37.1595-0.116497+32.2196+1.86533e-07+27.231C-0.110605+22.2686+1.00831+17.356+3.257+12.931C5.32591+8.94178+8.5323+5.65638+12.47+3.49101C16.7418+1.21896+21.5258+0.0826337+26.363+0.191007C32.3176+0.0748266+38.1586+1.82992+43.063+5.20901C43.8183+5.70686+44.4473+6.37382+44.9+7.15701C45.3061+7.99722+45.4992+8.92452+45.462+9.85701C45.5036+11.2814+45.0391+12.6745+44.151+13.789C43.4038+14.7987+42.2231+15.3957+40.967+15.399C40.2782+15.4092+39.5933+15.295+38.945+15.062C38.2113+14.7692+37.508+14.4054+36.845+13.976C35.2998+13.0188+33.6383+12.2636+31.901+11.729C30.343+11.2781+28.7289+11.0512+27.107+11.055C22.6623+11.055+19.3543+12.3907+17.183+15.062C15.0117+17.7333+13.9277+21.7897+13.931+27.231C13.931+32.7243+15.0167+36.807+17.188+39.479C19.3593+42.151+22.6673+43.4867+27.112+43.486C28.5889+43.4897+30.0564+43.2495+31.455+42.775C32.855+42.301+34.6527+41.5647+36.848+40.566C37.8967+40.016+38.6707+39.6413+39.17+39.442C39.7457+39.2295+40.3565+39.1277+40.97+39.142C42.2261+39.1454+43.4067+39.7424+44.154+40.752C45.0427+41.8661+45.5073+43.2595+45.465+44.684C45.5795+46.5555+44.6578+48.3389+43.065+49.328C38.1608+52.7072+32.3195+54.4616+26.365+54.344C21.5278+54.4545+16.7434+53.3199+12.471+51.049Z" opacity="1" fill="#333333"/>
<path d="M61.9811+51.011C58.0589+48.8386+54.8668+45.5549+52.8061+41.573C50.5723+37.1282+49.4661+32.2021+49.5851+27.229C49.4658+22.2558+50.572+17.3297+52.8061+12.885C54.8617+8.90906+58.0561+5.63632+61.9811+3.48499C70.8282-0.909239+81.222-0.909238+90.0691+3.48499C93.9887+5.6312+97.1725+8.90629+99.2071+12.885C101.417+17.3369+102.51+22.2601+102.39+27.229C102.51+32.2022+101.403+37.1284+99.1691+41.573C97.1075+45.5549+93.9147+48.8385+89.9921+51.011C81.1835+55.4551+70.7886+55.4551+61.9801+51.011L61.9811+51.011ZM85.3891+39.55C87.6364+36.73+88.7597+32.623+88.7591+27.229C88.7584+21.835+87.6224+17.7403+85.3511+14.945C82.9772+12.283+79.5821+10.7576+76.0153+10.7506C72.4486+10.7435+69.0475+12.2554+66.6631+14.908C64.4177+17.6793+63.2941+21.7863+63.2921+27.229C63.2901+32.6717+64.4137+36.7913+66.6631+39.588C69.0428+42.2623+72.4543+43.7891+76.0341+43.7818C79.614+43.7745+83.0192+42.234+85.3881+39.55L85.3891+39.55Z" opacity="1" fill="#333333"/>
<path d="M119.28+53.034C116.275+52.3431+113.42+51.1122+110.855+49.401C110.106+48.8657+109.48+48.1763+109.02+47.379C108.615+46.5382+108.422+45.6113+108.458+44.679C108.428+43.2603+108.905+41.8775+109.804+40.779C110.535+39.7658+111.7+39.1554+112.95+39.131C113.586+39.1295+114.219+39.2308+114.823+39.431C115.61+39.7239+116.363+40.1007+117.07+40.555C118.982+41.6504+121.034+42.4819+123.17+43.027C125.416+43.5508+127.717+43.8023+130.024+43.776C132.332+43.9104+134.637+43.4595+136.724+42.465C138.166+41.7284+139.056+40.227+139.009+38.608C139.009+37.4593+138.297+36.473+136.874+35.649C135.45+34.825+132.742+34.0137+128.749+33.215C124.733+32.4736+120.831+31.2148+117.139+29.47C114.725+28.3626+112.683+26.5806+111.26+24.339C110.081+22.1433+109.5+19.6767+109.575+17.186C109.557+14.0612+110.558+11.0157+112.427+8.51099C114.448+5.81686+117.15+3.70909+120.255+2.40399C123.791+0.887929+127.608+0.135197+131.455+0.194993C134.74+0.150134+138.016+0.553861+141.192+1.39499C143.99+2.1719+146.628+3.43995+148.982+5.13999C149.77+5.66946+150.424+6.37465+150.893+7.19999C151.292+8.02787+151.484+8.94038+151.453+9.85899C151.484+11.272+151.02+12.6515+150.142+13.759C149.429+14.7737+148.274+15.3862+147.034+15.407C146.424+15.4142+145.817+15.3261+145.234+15.146C144.42+14.8436+143.642+14.4543+142.912+13.985C142.661+13.835+141.949+13.448+140.777+12.824C139.473+12.151+138.088+11.6469+136.657+11.324C134.975+10.9373+133.253+10.7486+131.527+10.762C129.383+10.6611+127.254+11.1675+125.385+12.223C123.963+12.9867+123.072+14.4662+123.063+16.08C123.028+16.9315+123.323+17.7636+123.888+18.402C124.774+19.2016+125.821+19.8018+126.959+20.162C129.133+20.9194+131.361+21.5078+133.626+21.922C137.548+22.6709+141.352+23.9426+144.936+25.703C147.316+26.8469+149.336+28.6212+150.779+30.833C151.966+32.9318+152.562+35.3134+152.502+37.724C152.554+40.8571+151.58+43.9213+149.73+46.45C147.739+49.0808+145.054+51.104+141.977+52.292C138.292+53.7326+134.359+54.4326+130.404+54.352C126.655+54.3793+122.918+53.9365+119.28+53.034Z" opacity="1" fill="#333333"/>
<path d="M211.823+2.363C213.049+3.68052+213.697+5.43375+213.623+7.232L213.623+47.977C213.712+49.6374+213.116+51.2618+211.975+52.471C209.51+54.668+205.79+54.668+203.325+52.471C202.163+51.2723+201.551+49.6444+201.637+47.977L201.637+25.957L193.098+41.686C192.469+43.0125+191.545+44.178+190.398+45.094C188.353+46.4422+185.702+46.4422+183.657+45.094C182.51+44.1775+181.587+43.0121+180.957+41.686L172.493+26.406L172.493+47.977C172.567+49.6309+171.958+51.2425+170.807+52.433C168.347+54.6658+164.599+54.6822+162.119+52.471C160.956+51.2728+160.345+49.6443+160.433+47.977L160.433+7.232C160.359+5.42728+161.021+3.6699+162.268+2.363C164.527+0.165096+168.024-0.132494+170.622+1.652C171.801+2.52319+172.752+3.66673+173.393+4.985L187.175+30.901L200.882+4.985C202.429+1.989+204.525+0.491+207.171+0.491C208.917+0.427047+210.608+1.10752+211.823+2.363Z" opacity="1" fill="#333333"/>
<path d="M13.778+69.199C13.8963+69.3282+13.9588+69.4989+13.952+69.674L13.952+83.117C13.9587+83.2904+13.8998+83.46+13.787+83.592C13.6708+83.7183+13.5044+83.7865+13.333+83.778C13.1693+83.7896+13.0093+83.7255+12.899+83.604C12.7951+83.4644+12.7437+83.2927+12.754+83.119L12.754+71.657L7.862+81.117C7.75156+81.3982+7.48302+81.5855+7.181+81.592C6.87984+81.5828+6.6126+81.3964+6.5+81.117L1.567+71.739L1.567+83.118C1.57701+83.2916+1.52569+83.4633+1.422+83.603C1.31248+83.7256+1.15191+83.79+0.988001+83.777C0.814992+83.7899+0.645016+83.7263+0.523001+83.603C0.412285+83.4665+0.356954+83.2934+0.368001+83.118L0.368001+69.673C0.360833+69.4979+0.423407+69.327+0.542001+69.198C0.66954+69.0693+0.846149+69.0016+1.027+69.012C1.30858+69.0353+1.55056+69.221+1.646+69.487L7.201+80.143L12.674+69.487C12.7699+69.2213+13.0116+69.0358+13.293+69.012C13.4739+69.0026+13.6502+69.0706+13.778+69.199Z" opacity="1" fill="#23adae"/>
<path d="M36.647+83.241C36.6483+83.3904+36.5795+83.5318+36.461+83.623C36.3399+83.7255+36.1857+83.7806+36.027+83.778C35.9128+83.7772+35.8014+83.7424+35.707+83.678C35.602+83.6064+35.5197+83.506+35.47+83.389L33.901+79.796L25.89+79.796L24.3+83.389C24.2085+83.6277+23.9777+83.7839+23.722+83.78C23.5667+83.7836+23.4157+83.7287+23.299+83.626C23.1309+83.4625+23.078+83.2137+23.165+82.996L29.195+69.45C29.2955+69.1633+29.5738+68.978+29.877+68.996C30.027+68.9957+30.1739+69.0388+30.3+69.12C30.4257+69.1973+30.5232+69.313+30.578+69.45L36.588+82.996C36.6264+83.072+36.6466+83.1558+36.647+83.241ZM26.363+78.678L33.405+78.678L29.895+70.686L26.363+78.678Z" opacity="1" fill="#23adae"/>
<path d="M56.801+83.262C56.8034+83.409+56.7395+83.5493+56.627+83.644C56.5179+83.744+56.3751+83.7993+56.227+83.799C55.9941+83.8002+55.7795+83.673+55.669+83.468L52.882+79.008C52.5841+78.4812+52.1623+78.035+51.653+77.708C51.1103+77.4455+50.5101+77.3244+49.908+77.356L47.08+77.356L47.08+83.117C47.0903+83.2955+47.0274+83.4706+46.906+83.602C46.6393+83.8337+46.2427+83.8337+45.976+83.602C45.8534+83.4714+45.7904+83.2957+45.802+83.117L45.802+69.759C45.8001+69.5859+45.873+69.4204+46.002+69.305C46.1328+69.1815+46.3072+69.115+46.487+69.12L51.629+69.12C52.8924+69.0375+54.1439+69.4068+55.16+70.162C56.7388+71.7585+56.8199+74.3021+55.346+75.996C54.5278+76.7344+53.4746+77.1595+52.373+77.196C52.7117+77.3112+53.0216+77.4977+53.282+77.743C53.6077+78.0603+53.8919+78.4174+54.128+78.806L56.69+82.915C56.76+83.0174+56.7985+83.138+56.801+83.262ZM51.535+76.262C53.9304+76.262+55.128+75.2363+55.128+73.185C55.1943+72.3409+54.8665+71.5136+54.24+70.944C53.449+70.3961+52.4934+70.1373+51.534+70.211L47.053+70.211L47.053+76.262L51.535+76.262Z" opacity="1" fill="#23adae"/>
<path d="M76.833+83.179C76.8217+83.4934+76.5694+83.7456+76.255+83.757C76.1096+83.7483+75.9716+83.6901+75.864+83.592L67.77+76.716L67.77+83.116C67.7767+83.291+67.7142+83.4617+67.596+83.591C67.3358+83.8384+66.9272+83.8384+66.667+83.591C66.5483+83.462+66.4857+83.2911+66.493+83.116L66.493+69.674C66.4857+69.4988+66.5483+69.328+66.667+69.199C66.9272+68.9515+67.3358+68.9515+67.596+69.199C67.7143+69.3282+67.7768+69.4989+67.77+69.674L67.77+75.89L75.451+69.201C75.553+69.0944+75.6945+69.0347+75.842+69.036C75.9972+69.0374+76.1456+69.0999+76.255+69.21C76.3713+69.3106+76.439+69.4562+76.441+69.61C76.4353+69.7872+76.3524+69.953+76.214+70.064L69.028+76.238L76.605+82.721C76.7442+82.833+76.8275+83.0003+76.833+83.179Z" opacity="1" fill="#23adae"/>
<path d="M85.947+83.4929C85.818+83.3775+85.7451+83.212+85.747+83.0389L85.747+69.7609C85.7451+69.5878+85.818+69.4223+85.947+69.3069C86.0779+69.183+86.2529+69.1164+86.433+69.1219L94.279+69.1219C94.4336+69.1134+94.5856+69.165+94.703+69.2659C94.8113+69.3751+94.8678+69.5254+94.858+69.6789C94.865+69.8255+94.8085+69.968+94.703+70.0699C94.5857+70.1712+94.4338+70.2232+94.279+70.2149L87.013+70.2149L87.013+75.7289L93.868+75.7289C94.0223+75.7207+94.1738+75.7722+94.291+75.8729C94.498+76.1094+94.498+76.4625+94.291+76.6989C94.174+76.8+94.0224+76.8519+93.868+76.8439L87.013+76.8439L87.013+82.5839L94.281+82.5839C94.434+82.5752+94.5848+82.6229+94.705+82.7179C94.8142+82.8212+94.8711+82.9681+94.86+83.1179C94.8699+83.2714+94.8135+83.4218+94.705+83.5309C94.5877+83.6322+94.4358+83.6842+94.281+83.6759L86.433+83.6759C86.2532+83.6818+86.0783+83.616+85.947+83.4929Z" opacity="1" fill="#23adae"/>
<path d="M107.698+83.5929C107.585+83.4611+107.526+83.2915+107.532+83.1179L107.532+70.2329L102.762+70.2329C102.607+70.2411+102.455+70.1892+102.338+70.0879C102.132+69.8511+102.132+69.4987+102.338+69.2619C102.455+69.16+102.607+69.1083+102.762+69.1179L113.542+69.1179C113.694+69.1131+113.842+69.1685+113.954+69.2719C114.175+69.4948+114.175+69.854+113.954+70.0769C113.842+70.1808+113.694+70.2365+113.542+70.2319L108.792+70.2319L108.792+83.1169C108.799+83.292+108.736+83.4626+108.618+83.5919C108.497+83.7176+108.328+83.7853+108.154+83.7779C107.982+83.7871+107.815+83.7193+107.698+83.5929Z" opacity="1" fill="#23adae"/>
<path d="M134.743+83.4929C134.614+83.3775+134.541+83.212+134.543+83.0389L134.543+69.7609C134.541+69.5878+134.614+69.4223+134.743+69.3069C134.874+69.1832+135.048+69.1166+135.228+69.1219L139.233+69.1219C141.938+68.9602+144.509+70.3111+145.91+72.6299C147.311+74.9487+147.311+77.8531+145.91+80.1719C144.509+82.4907+141.938+83.8416+139.233+83.6799L135.228+83.6799C135.048+83.6845+134.874+83.6172+134.743+83.4929ZM139.173+82.5639C143.138+82.5639+145.12+80.5059+145.12+76.3899C145.12+72.2873+143.138+70.2359+139.173+70.2359L135.829+70.2359L135.829+82.5639L139.173+82.5639Z" opacity="1" fill="#23adae"/>
<path d="M156.445+83.4929C156.316+83.3775+156.243+83.212+156.245+83.0389L156.245+69.7609C156.243+69.5878+156.316+69.4223+156.445+69.3069C156.576+69.1835+156.75+69.1169+156.93+69.1219L164.777+69.1219C164.932+69.1134+165.084+69.165+165.201+69.2659C165.309+69.3752+165.365+69.5256+165.355+69.6789C165.362+69.8253+165.306+69.9676+165.201+70.0699C165.084+70.1708+164.932+70.2224+164.777+70.2139L157.507+70.2139L157.507+75.7279L164.363+75.7279C164.517+75.7197+164.669+75.7712+164.786+75.8719C164.993+76.1085+164.993+76.4613+164.786+76.6979C164.669+76.799+164.517+76.8509+164.363+76.8429L157.507+76.8429L157.507+82.5829L164.776+82.5829C164.929+82.5736+165.08+82.6214+165.2+82.7169C165.309+82.8206+165.365+82.9672+165.355+83.1169C165.365+83.2704+165.308+83.4207+165.2+83.5299C165.083+83.6312+164.931+83.6832+164.776+83.6749L156.929+83.6749C156.75+83.6806+156.576+83.6151+156.445+83.4929Z" opacity="1" fill="#23adae"/>
<path d="M175.008+83.51C174.881+83.411+174.807+83.2583+174.808+83.097L174.808+69.676C174.801+69.501+174.863+69.3303+174.981+69.201C175.102+69.0753+175.272+69.0076+175.446+69.015C175.622+69.0032+175.794+69.0664+175.921+69.189C176.038+69.3226+176.098+69.4968+176.087+69.674L176.087+82.559L183.153+82.559C183.307+82.551+183.459+82.603+183.576+82.704C183.783+82.9406+183.783+83.2934+183.576+83.53C183.459+83.631+183.307+83.683+183.153+83.675L175.469+83.675C175.301+83.6773+175.137+83.6187+175.008+83.51Z" opacity="1" fill="#23adae"/>
<path d="M192.602+83.592C192.484+83.4629+192.421+83.2921+192.429+83.117L192.429+69.675C192.421+69.5+192.483+69.329+192.602+69.2C192.787+69.0069+193.072+68.9491+193.317+69.055C193.563+69.1609+193.716+69.4082+193.702+69.675L193.702+83.118C193.716+83.3848+193.563+83.6322+193.317+83.7381C193.072+83.844+192.787+83.7862+192.602+83.593L192.602+83.592Z" opacity="1" fill="#23adae"/>
<path d="M215.345+68.993C215.507+68.9917+215.664+69.0465+215.79+69.148C215.915+69.2356+215.989+69.3779+215.99+69.53C215.989+69.6164+215.968+69.7012+215.928+69.778L209.918+83.324C209.864+83.4616+209.766+83.5778+209.64+83.655C209.514+83.7362+209.367+83.7793+209.216+83.779C209.075+83.7777+208.937+83.7386+208.816+83.666C208.682+83.5877+208.577+83.4681+208.516+83.325L202.528+69.779C202.49+69.7093+202.469+69.6315+202.466+69.552C202.464+69.3942+202.539+69.2451+202.666+69.152C202.792+69.0509+202.948+68.9962+203.109+68.997C203.347+68.9817+203.566+69.1246+203.647+69.348L209.242+82.006L214.818+69.35C214.896+69.1277+215.11+68.9826+215.345+68.993Z" opacity="1" fill="#23adae"/>
<path d="M224.919+83.4929C224.79+83.3775+224.717+83.212+224.719+83.0389L224.719+69.7609C224.717+69.5878+224.79+69.4223+224.919+69.3069C225.05+69.1833+225.225+69.1168+225.405+69.1219L233.252+69.1219C233.406+69.1137+233.558+69.1652+233.675+69.2659C233.784+69.3748+233.84+69.5253+233.83+69.6789C233.837+69.8255+233.78+69.968+233.675+70.0699C233.558+70.1713+233.406+70.223+233.252+70.2139L225.983+70.2139L225.983+75.7279L232.838+75.7279C232.992+75.7197+233.144+75.7712+233.261+75.8719C233.469+76.108+233.469+76.4618+233.261+76.6979C233.144+76.799+232.992+76.8509+232.838+76.8429L225.983+76.8429L225.983+82.5829L233.252+82.5829C233.405+82.5741+233.556+82.6218+233.676+82.7169C233.785+82.8204+233.841+82.9672+233.83+83.1169C233.84+83.2703+233.784+83.4207+233.676+83.5299C233.559+83.6312+233.407+83.6832+233.252+83.6749L225.405+83.6749C225.225+83.6811+225.05+83.6156+224.919+83.4929Z" opacity="1" fill="#23adae"/>
<path d="M254.291+83.262C254.293+83.409+254.229+83.5493+254.117+83.644C254.007+83.7432+253.865+83.7984+253.717+83.799C253.484+83.8003+253.27+83.673+253.16+83.468L250.372+79.008C250.074+78.4813+249.652+78.0351+249.143+77.708C248.6+77.4455+248+77.3244+247.398+77.356L244.571+77.356L244.571+83.117C244.581+83.2955+244.518+83.4706+244.397+83.602C244.13+83.8331+243.735+83.8331+243.468+83.602C243.346+83.4712+243.283+83.2956+243.295+83.117L243.295+69.759C243.293+69.5859+243.366+69.4204+243.495+69.305C243.626+69.1811+243.801+69.1145+243.981+69.12L249.122+69.12C250.386+69.0376+251.637+69.4069+252.654+70.162C254.231+71.7587+254.312+74.3009+252.84+75.995C252.021+76.7333+250.967+77.1583+249.865+77.195C250.204+77.31+250.514+77.4966+250.775+77.742C251.1+78.0601+251.384+78.4172+251.621+78.805L254.181+82.915C254.251+83.0174+254.289+83.138+254.291+83.262ZM249.025+76.262C251.42+76.262+252.618+75.2363+252.618+73.185C252.685+72.3408+252.357+71.5132+251.73+70.944C250.939+70.3963+249.984+70.1375+249.025+70.211L244.544+70.211L244.544+76.262L249.025+76.262Z" opacity="1" fill="#23adae"/>
<path d="M273.453+69.0339C273.601+69.0329+273.743+69.0925+273.845+69.1989C273.955+69.3079+274.015+69.4573+274.011+69.6119C274.013+69.7558+273.961+69.8951+273.866+70.0029L268.704+76.6519L268.704+83.1149C268.71+83.2885+268.651+83.4579+268.538+83.5899C268.422+83.7165+268.255+83.7844+268.083+83.7749C267.909+83.7828+267.74+83.7154+267.619+83.5899C267.501+83.4608+267.438+83.29+267.445+83.1149L267.445+76.6149L262.304+70.0069C262.103+69.7771+262.112+69.4314+262.324+69.2119C262.423+69.1004+262.566+69.037+262.715+69.0379C262.898+69.0402+263.068+69.1331+263.169+69.2859L268.086+75.6449L273+69.2849C273.1+69.1314+273.27+69.0374+273.453+69.0339Z" opacity="1" fill="#23adae"/>
</g>
</svg>
