<?xml version="1.0" encoding="UTF-8" standalone="no"?> <!-- Created with Vectornator for iOS (http://vectornator.io/) --><!DOCTYPE svg PUBLIC "-//W3C//DTD SVG 1.1//EN" "http://www.w3.org/Graphics/SVG/1.1/DTD/svg11.dtd">
<svg height="100%" style="fill-rule:evenodd;clip-rule:evenodd;stroke-linecap:round;stroke-linejoin:round;" xmlns:xlink="http://www.w3.org/1999/xlink" xmlns="http://www.w3.org/2000/svg" xml:space="preserve" width="100%" xmlns:vectornator="http://vectornator.io" version="1.1" viewBox="0 0 279.542 88.1533">
<metadata>
<vectornator:setting key="RulersVisible" value="1"/>
<vectornator:setting key="Units" value="Points"/>
<vectornator:setting key="DynamicGuides" value="1"/>
<vectornator:setting key="GuidesVisible" value="1"/>
<vectornator:setting key="CMYKEnabledKey" value="0"/>
<vectornator:setting key="SnapToGuides" value="1"/>
<vectornator:setting key="GridSpacing" value="36"/>
</metadata>
<defs>
<path d="M270.196+11.7369C279.923+23.1645+278.545+40.3142+267.118+50.0419C255.69+59.7695+238.541+58.3915+228.813+46.9639C219.085+35.5364+220.463+18.3867+231.891+8.65899C243.318-1.06869+260.468+0.309332+270.196+11.7369Z" id="Mask"/>
<linearGradient y1="0.066" id="LinearGradient" x1="0.066" y2="0.934" x2="0.933" gradientUnits="userSpaceOnUse" gradientTransform="matrix(1 0 0 1 -4819.11 1.55242)">
<stop stop-color="#93f7cd" offset="0"/>
<stop stop-color="#8bebd1" offset="0.08"/>
<stop stop-color="#73c6de" offset="0.35"/>
<stop stop-color="#61ace7" offset="0.6"/>
<stop stop-color="#579cec" offset="0.83"/>
<stop stop-color="#5396ee" offset="1"/>
</linearGradient>
<linearGradient y1="0.5" id="LinearGradient_2" x1="0" y2="0.5" x2="1" gradientUnits="userSpaceOnUse" gradientTransform="matrix(1 0 0 1 -5850.18 -174.298)">
<stop stop-color="#f5da67" offset="0"/>
<stop stop-color="#f9e17c" offset="0.39"/>
<stop stop-color="#ffeb99" offset="1"/>
</linearGradient>
<linearGradient y1="0.5" id="LinearGradient_3" x1="0" y2="0.5" x2="1" gradientUnits="userSpaceOnUse" gradientTransform="matrix(1 0 0 1 224.771 6.02745)">
<stop stop-color="#f5da67" offset="0"/>
<stop stop-color="#f5cb32" offset="0.61"/>
<stop stop-color="#f5c215" offset="1"/>
</linearGradient>
<linearGradient y1="-0.508" id="LinearGradient_4" x1="-0.023" y2="-1.085" x2="0.554" gradientUnits="userSpaceOnUse" gradientTransform="matrix(1 0 0 1 -4680.65 -528.382)">
<stop stop-color="#2c9698" offset="0"/>
<stop stop-color="#25a7a8" offset="0.34"/>
<stop stop-color="#1ac4c4" offset="1"/>
</linearGradient>
<linearGradient y1="0.5" id="LinearGradient_5" x1="1" y2="0.5" x2="0" gradientUnits="userSpaceOnUse" gradientTransform="matrix(1 0 0 1 -4680.66 -210.011)">
<stop stop-color="#2c9698" offset="0"/>
<stop stop-color="#25a7a8" offset="0.34"/>
<stop stop-color="#1ac4c4" offset="1"/>
</linearGradient>
</defs>
<g id="Logo" vectornator:layerName="Logo">
<g opacity="1" vectornator:mask="#Mask">
<clipPath id="ClipPath">
<use xlink:href="#Mask" fill="none" overflow="visible"/>
</clipPath>
<g clip-path="url(#ClipPath)">
<g opacity="1">
<path d="M277.301+20.9344L277.301+37.7644C277.301+43.3464+277.301+46.1354+276.351+49.1404C275.158+52.4207+272.574+55.0046+269.294+56.1974C266.294+57.1474+263.499+57.1474+257.918+57.1474L241.086+57.1474C235.505+57.1474+232.716+57.1474+229.711+56.1974C226.43+55.0046+223.847+52.4207+222.654+49.1404C221.704+46.1404+221.704+43.3464+221.704+37.7644L221.704+20.9344C221.704+15.3534+221.704+12.5644+222.654+9.55942C223.847+6.27871+226.432+3.69476+229.713+2.50242C232.713+1.55242+235.507+1.55242+241.088+1.55242L257.918+1.55242C263.499+1.55242+266.29+1.55242+269.294+2.50242C272.575+3.69476+275.159+6.27871+276.353+9.55942C277.303+12.5594+277.303+15.3534+277.303+20.9344" opacity="1" fill="url(#LinearGradient)"/>
<path d="M275.303+19.8424C273.587+22.8421+269.921+24.1156+266.715+22.8255C263.509+21.5354+261.747+18.0775+262.588+14.7255C263.428+11.3735+266.613+9.15574+270.048+9.53042C270.385+9.56543+270.679+9.7749+270.823+10.0822C270.966+10.3894+270.938+10.7494+270.748+11.0304C269.808+12.46+269.709+14.284+270.488+15.8071C271.267+17.3301+272.804+18.3174+274.513+18.3924C274.85+18.4088+275.154+18.5995+275.315+18.8956C275.476+19.1917+275.472+19.5505+275.303+19.8424Z" opacity="1" fill="#fff6cf"/>
<path d="M275.301+19.7964C275.187+19.9922+274.971+20.1045+274.745+20.0844C272.428+19.8496+270.386+18.4619+269.314+16.3942C268.243+14.3264+268.287+11.8578+269.431+9.82941C269.546+9.63039+269.766+9.51695+269.995+9.53941L270.086+9.54841C270.414+9.58627+270.698+9.7929+270.836+10.0932C270.973+10.3934+270.943+10.7436+270.757+11.0164C269.808+12.4445+269.702+14.2731+270.48+15.8011C271.258+17.3291+272.799+18.3195+274.512+18.3924C274.841+18.4035+275.14+18.5854+275.302+18.8724C275.463+19.1593+275.463+19.5097+275.301+19.7964Z" opacity="1" fill="url(#LinearGradient_2)"/>
<path d="M242.927+14.0495L241.804+14.0495C241.405+14.0288+241.092+13.6992+241.092+13.2995C241.092+12.8997+241.405+12.5701+241.804+12.5495L242.93+12.5495C243.33+12.5701+243.643+12.8997+243.643+13.2995C243.643+13.6992+243.33+14.0288+242.93+14.0495L242.927+14.0495Z" opacity="1" fill="#ffec8f"/>
<path d="M227.719-0.212576C227.305-0.213128+226.969-0.549201+226.969-0.963576L226.969-2.08958C226.969-2.50434+227.306-2.84058+227.72-2.84058C228.135-2.84058+228.471-2.50434+228.471-2.08958L228.471-0.963576C228.471-0.764225+228.392-0.573054+228.251-0.432185C228.11-0.291317+227.919-0.212311+227.719-0.212576Z" opacity="1" fill="#ffec8f"/>
<path d="M238.403+6.93045C238.262+6.78963+238.183+6.59862+238.183+6.39945C238.183+6.20028+238.262+6.00928+238.403+5.86845L239.203+5.06845C239.344+4.92767+239.534+4.84852+239.733+4.84845C239.932+4.84847+240.123+4.92761+240.264+5.06845C240.556+5.36218+240.556+5.83672+240.264+6.13045L239.464+6.93045C239.171+7.22369+238.695+7.22369+238.402+6.93045L238.403+6.93045Z" opacity="1" fill="#ffec8f"/>
<path d="M225.137+7.15645C224.938+7.1571+224.746+7.07786+224.606+6.93645L223.806+6.13645C223.513+5.84329+223.513+5.36861+223.806+5.07545C223.947+4.93439+224.138+4.85511+224.337+4.85511C224.536+4.85511+224.727+4.93439+224.868+5.07545L225.668+5.87545C225.881+6.09068+225.944+6.41268+225.828+6.69242C225.712+6.97216+225.44+7.15506+225.137+7.15645Z" opacity="1" fill="#ffec8f"/>
<path d="M222.284+14.0965L221.158+14.0965C220.759+14.0758+220.446+13.7462+220.446+13.3465C220.446+12.9467+220.759+12.6171+221.158+12.5965L222.284+12.5965C222.562+12.5821+222.824+12.7219+222.967+12.9598C223.11+13.1978+223.11+13.4951+222.967+13.7331C222.824+13.971+222.562+14.1108+222.284+14.0965Z" opacity="1" fill="#ffec8f"/>
<path d="M239.22+21.5574L238.42+20.7574C238.127+20.4645+238.126+19.9888+238.419+19.6949C238.712+19.4011+239.188+19.4005+239.481+19.6934L240.281+20.4934C240.558+20.7891+240.551+21.2512+240.265+21.5378C239.978+21.8244+239.516+21.8322+239.22+21.5554L239.22+21.5574Z" opacity="1" fill="#ffec8f"/>
<path d="M232.044+24.9345C231.845+24.9345+231.654+24.8553+231.513+24.7144C231.372+24.5736+231.293+24.3825+231.294+24.1835L231.294+23.0575C231.279+22.7803+231.419+22.5178+231.657+22.3749C231.895+22.232+232.192+22.232+232.43+22.3749C232.668+22.5178+232.808+22.7803+232.794+23.0575L232.794+24.1835C232.794+24.3828+232.714+24.574+232.573+24.7148C232.432+24.8557+232.241+24.9347+232.042+24.9345L232.044+24.9345Z" opacity="1" fill="#ffec8f"/>
<path d="M223.798+21.5504C223.505+21.2572+223.505+20.7817+223.798+20.4884L224.598+19.6884C224.891+19.3955+225.367+19.3957+225.66+19.6889C225.953+19.9822+225.952+20.4575+225.659+20.7504L224.859+21.5504C224.566+21.8425+224.091+21.8425+223.798+21.5504Z" opacity="1" fill="#ffec8f"/>
<path d="M224.771+13.3225C224.771+9.29354+228.038+6.02745+232.066+6.02745C236.095+6.02745+239.361+9.29354+239.361+13.3225C239.361+17.3514+236.095+20.6175+232.066+20.6175C228.038+20.6175+224.771+17.3514+224.771+13.3225Z" opacity="1" fill="url(#LinearGradient_3)"/>
<path d="M237.373+13.8145C236.168+10.8252+233.442+8.71975+230.245+8.30845C229.757+8.24802+229.38+7.85097+229.345+7.36065C229.31+6.87032+229.627+6.42368+230.101+6.29445C232.319+5.68357+234.695+6.15157+236.516+7.5579C238.337+8.96423+239.39+11.1451+239.359+13.4455C239.353+13.9364+239+14.3543+238.518+14.444C238.035+14.5337+237.556+14.2702+237.373+13.8145Z" opacity="1" fill="#ffec8f"/>
<path d="M263.209+34.0924L275.109+45.9924C279.055+49.9394+281.029+51.9114+282.482+54.7074C283.958+57.8703+283.958+61.5245+282.482+64.6874C281.029+67.4874+279.055+69.4564+275.109+73.4024L263.209+85.3024C259.263+89.2494+257.289+91.2214+254.493+92.6744C251.33+94.1504+247.676+94.1504+244.513+92.6744C241.713+91.2224+239.744+89.2494+235.797+85.3024L223.897+73.4024C219.951+69.4564+217.979+67.4834+216.527+64.6874C215.051+61.5245+215.051+57.8703+216.527+54.7074C217.979+51.9074+219.952+49.9384+223.899+45.9924L235.799+34.0924C239.746+30.1464+241.719+28.1734+244.516+26.7204C247.679+25.2453+251.333+25.2453+254.496+26.7204C257.296+28.1734+259.264+30.1464+263.21+34.0914" opacity="1" fill="url(#LinearGradient_4)"/>
<path d="M263.205+28.7133L275.105+40.6133C279.051+44.5603+281.024+46.5323+282.478+49.3283C283.954+52.4912+283.954+56.1453+282.478+59.3083C281.025+62.1083+279.051+64.0773+275.105+68.0233L263.205+79.9233C259.259+83.8703+257.285+85.8433+254.49+87.2953C251.327+88.7706+247.673+88.7706+244.51+87.2953C241.71+85.8433+239.741+83.8703+235.795+79.9233L223.895+68.0233C219.949+64.0773+217.976+62.1043+216.524+59.3083C215.048+56.1453+215.048+52.4912+216.524+49.3283C217.976+46.5283+219.949+44.5593+223.896+40.6133L235.796+28.7133C239.743+24.7673+241.715+22.7943+244.512+21.3413C247.675+19.8662+251.329+19.8662+254.492+21.3413C257.292+22.7943+259.26+24.7673+263.206+28.7123" opacity="1" fill="url(#LinearGradient_5)"/>
<path d="M263.209+39.0324L275.109+50.9324C279.055+54.8794+281.028+56.8514+282.482+59.6474C283.958+62.8103+283.958+66.4645+282.482+69.6274C281.029+72.4274+279.055+74.3964+275.109+78.3424L263.209+90.2424C259.263+94.1894+257.289+96.1614+254.494+97.6144C251.331+99.0897+247.677+99.0897+244.514+97.6144C241.714+96.1624+239.745+94.1894+235.799+90.2424L223.899+78.3424C219.953+74.3964+217.98+72.4234+216.528+69.6274C215.052+66.4645+215.052+62.8103+216.528+59.6474C217.98+56.8474+219.953+54.8784+223.9+50.9324L235.8+39.0324C239.747+35.0864+241.719+33.1134+244.516+31.6604C247.679+30.1853+251.333+30.1853+254.496+31.6604C257.296+33.1134+259.264+35.0864+263.21+39.0324" opacity="1" fill="#ffffff"/>
<path d="M263.206+35.4061L275.106+47.3061C279.052+51.2531+281.026+53.2251+282.479+56.0211C283.955+59.1841+283.955+62.8382+282.479+66.0011C281.026+68.8011+279.052+70.7701+275.106+74.7161L263.206+86.6161C259.26+90.5631+257.286+92.5351+254.49+93.9881C251.327+95.4642+247.673+95.4642+244.51+93.9881C241.71+92.5361+239.741+90.5631+235.794+86.6161L223.894+74.7161C219.948+70.7701+217.976+68.7961+216.524+66.0011C215.048+62.8382+215.048+59.1841+216.524+56.0211C217.976+53.2211+219.949+51.2521+223.896+47.3061L235.796+35.4061C239.743+31.4601+241.716+29.4871+244.513+28.0341C247.676+26.5591+251.33+26.5591+254.493+28.0341C257.293+29.4871+259.261+31.4601+263.207+35.4051" opacity="1" fill="#f4c132"/>
</g>
<path d="M241.086+1.55242L257.916+1.55242C263.498+1.55242+266.289+1.55242+269.292+2.50142C272.572+3.69497+275.155+6.27859+276.349+9.55842C277.299+12.5584+277.299+15.3534+277.299+20.9344L277.299+37.7644C277.299+43.3454+277.299+46.1354+276.349+49.1404C275.156+52.4207+272.572+55.0046+269.292+56.1974C266.292+57.1474+263.498+57.1474+257.916+57.1474L241.086+57.1474C235.505+57.1474+232.716+57.1474+229.711+56.1974C226.43+55.0046+223.847+52.4207+222.654+49.1404C221.704+46.1404+221.704+43.3464+221.704+37.7644L221.704+20.9344C221.704+15.3534+221.704+12.5634+222.654+9.55842C223.847+6.27867+226.431+3.69509+229.711+2.50142C232.711+1.55242+235.505+1.55242+241.086+1.55242" opacity="1" fill="none"/>
</g>
</g>
<path d="M15.2403+53.2264C11.3017+51.0628+8.09475+47.7778+6.02629+43.7884C3.77167+39.3369+2.65279+34.397+2.76929+29.4084C2.65869+24.4461+3.7776+19.5334+6.02629+15.1084C8.0952+11.1192+11.3016+7.83381+15.2393+5.66843C19.5111+3.39639+24.2951+2.26006+29.1323+2.36843C35.0869+2.25225+40.9279+4.00735+45.8323+7.38643C46.5876+7.88428+47.2166+8.55124+47.6693+9.33443C48.0754+10.1746+48.2684+11.1019+48.2313+12.0344C48.2729+13.4589+47.8084+14.852+46.9203+15.9664C46.1731+16.9762+44.9924+17.5731+43.7363+17.5764C43.0475+17.5866+42.3625+17.4724+41.7143+17.2394C40.9806+16.9466+40.2773+16.5829+39.6143+16.1534C38.0691+15.1962+36.4076+14.441+34.6703+13.9064C33.1123+13.4556+31.4982+13.2286+29.8763+13.2324C25.4316+13.2324+22.1236+14.5681+19.9523+17.2394C17.781+19.9108+16.697+23.9671+16.7003+29.4084C16.7003+34.9018+17.786+38.9844+19.9573+41.6564C22.1286+44.3284+25.4366+45.6641+29.8813+45.6634C31.3582+45.6672+32.8256+45.4269+34.2243+44.9524C35.6243+44.4784+37.422+43.7421+39.6173+42.7434C40.666+42.1934+41.44+41.8188+41.9393+41.6194C42.515+41.4069+43.1257+41.3051+43.7393+41.3194C44.9954+41.3229+46.176+41.9198+46.9233+42.9294C47.812+44.0435+48.2766+45.4369+48.2343+46.8614C48.3488+48.7329+47.4271+50.5163+45.8343+51.5054C40.9301+54.8846+35.0888+56.6391+29.1343+56.5214C24.2971+56.632+19.5127+55.4973+15.2403+53.2264Z" opacity="1" fill="#333333"/>
<path d="M64.7504+53.1884C60.8282+51.016+57.6361+47.7324+55.5754+43.7504C53.3416+39.3056+52.2354+34.3796+52.3544+29.4064C52.2351+24.4332+53.3413+19.5071+55.5754+15.0624C57.631+11.0865+60.8254+7.81375+64.7504+5.66242C73.5974+1.26818+83.9913+1.26818+92.8384+5.66242C96.758+7.80863+99.9418+11.0837+101.976+15.0624C104.186+19.5144+105.279+24.4376+105.159+29.4064C105.279+34.3796+104.173+39.3058+101.938+43.7504C99.8767+47.7324+96.6839+51.016+92.7614+53.1884C83.9528+57.6325+73.5579+57.6325+64.7494+53.1884L64.7504+53.1884ZM88.1584+41.7274C90.4057+38.9074+91.529+34.8004+91.5284+29.4064C91.5277+24.0124+90.3917+19.9178+88.1204+17.1224C85.7464+14.4604+82.3514+12.9351+78.7846+12.928C75.2179+12.9209+71.8168+14.4328+69.4324+17.0854C67.187+19.8568+66.0634+23.9638+66.0614+29.4064C66.0594+34.8491+67.183+38.9688+69.4324+41.7654C71.8121+44.4398+75.2236+45.9665+78.8034+45.9592C82.3833+45.952+85.7885+44.4114+88.1574+41.7274L88.1584+41.7274Z" opacity="1" fill="#333333"/>
<path d="M122.049+55.2114C119.044+54.5206+116.189+53.2896+113.624+51.5784C112.875+51.0432+112.249+50.3537+111.789+49.5564C111.385+48.7157+111.192+47.7888+111.227+46.8564C111.197+45.4377+111.675+44.0549+112.573+42.9564C113.305+41.9432+114.47+41.3329+115.719+41.3084C116.355+41.3069+116.988+41.4082+117.592+41.6084C118.379+41.9013+119.133+42.2781+119.839+42.7324C121.752+43.8278+123.804+44.6594+125.939+45.2044C128.185+45.7283+130.487+45.9797+132.793+45.9534C135.101+46.0878+137.406+45.6369+139.493+44.6424C140.936+43.9059+141.825+42.4045+141.778+40.7854C141.778+39.6368+141.066+38.6504+139.643+37.8264C138.22+37.0024+135.511+36.1911+131.518+35.3924C127.503+34.651+123.6+33.3922+119.908+31.6474C117.494+30.54+115.453+28.7581+114.029+26.5164C112.851+24.3208+112.27+21.8542+112.344+19.3634C112.326+16.2386+113.328+13.1931+115.196+10.6884C117.217+7.99428+119.919+5.88651+123.024+4.58142C126.56+3.06535+130.377+2.31262+134.224+2.37242C137.509+2.32756+140.785+2.73128+143.961+3.57242C146.759+4.34932+149.397+5.61738+151.751+7.31742C152.539+7.84688+153.193+8.55207+153.662+9.37742C154.061+10.2053+154.254+11.1178+154.222+12.0364C154.253+13.4495+153.789+14.8289+152.911+15.9364C152.198+16.9511+151.043+17.5636+149.803+17.5844C149.193+17.5916+148.586+17.5036+148.003+17.3234C147.19+17.021+146.411+16.6317+145.681+16.1624C145.43+16.0124+144.719+15.6254+143.546+15.0014C142.242+14.3284+140.858+13.8243+139.426+13.5014C137.744+13.1147+136.022+12.9261+134.296+12.9394C132.152+12.8385+130.023+13.3449+128.154+14.4004C126.732+15.1641+125.842+16.6436+125.832+18.2574C125.797+19.1089+126.093+19.941+126.657+20.5794C127.543+21.3791+128.59+21.9792+129.728+22.3394C131.902+23.0968+134.131+23.6852+136.395+24.0994C140.317+24.8483+144.121+26.12+147.705+27.8804C150.085+29.0244+152.106+30.7986+153.548+33.0104C154.735+35.1092+155.331+37.4908+155.271+39.9014C155.323+43.0345+154.35+46.0987+152.499+48.6274C150.509+51.2582+147.824+53.2815+144.746+54.4694C141.061+55.91+137.129+56.61+133.173+56.5294C129.425+56.5567+125.687+56.1139+122.049+55.2114Z" opacity="1" fill="#333333"/>
<path d="M214.592+4.54042C215.818+5.85795+216.467+7.61118+216.392+9.40942L216.392+50.1544C216.481+51.8149+215.886+53.4392+214.744+54.6484C212.279+56.8454+208.559+56.8454+206.094+54.6484C204.932+53.4497+204.321+51.8218+204.406+50.1544L204.406+28.1344L195.867+43.8634C195.238+45.1899+194.315+46.3554+193.167+47.2714C191.123+48.6196+188.471+48.6196+186.426+47.2714C185.279+46.3549+184.356+45.1895+183.726+43.8634L175.262+28.5834L175.262+50.1544C175.337+51.8084+174.727+53.4199+173.576+54.6104C171.116+56.8432+167.368+56.8596+164.888+54.6484C163.725+53.4503+163.115+51.8218+163.202+50.1544L163.202+9.40942C163.128+7.60471+163.79+5.84733+165.037+4.54042C167.297+2.34252+170.793+2.04493+173.391+3.82942C174.57+4.70061+175.521+5.84415+176.162+7.16242L189.944+33.0784L203.651+7.16242C205.198+4.16642+207.294+2.66842+209.94+2.66842C211.686+2.60447+213.377+3.28494+214.592+4.54042Z" opacity="1" fill="#333333"/>
<g opacity="1">
<path stroke="#ffffff" stroke-width="2" d="M16.5473+71.3764C16.6656+71.5056+16.7281+71.6763+16.7213+71.8514L16.7213+85.2944C16.728+85.4678+16.6691+85.6375+16.5563+85.7694C16.4401+85.8957+16.2737+85.9639+16.1023+85.9554C15.9386+85.967+15.7786+85.9029+15.6683+85.7814C15.5644+85.6418+15.513+85.4701+15.5233+85.2964L15.5233+73.8344L10.6313+83.2944C10.5209+83.5756+10.2523+83.7629+9.95029+83.7694C9.64913+83.7603+9.38189+83.5739+9.26929+83.2944L4.33629+73.9164L4.33629+85.2954C4.3463+85.4691+4.29498+85.6407+4.19129+85.7804C4.08177+85.903+3.9212+85.9674+3.75729+85.9544C3.58428+85.9673+3.41431+85.9037+3.29229+85.7804C3.18158+85.6439+3.12625+85.4708+3.13729+85.2954L3.13729+71.8504C3.13012+71.6753+3.1927+71.5045+3.31129+71.3754C3.43883+71.2468+3.61544+71.179+3.79629+71.1894C4.07787+71.2128+4.31986+71.3985+4.41529+71.6644L9.97029+82.3204L15.4433+71.6644C15.5392+71.3988+15.7809+71.2133+16.0623+71.1894C16.2432+71.1801+16.4195+71.248+16.5473+71.3764Z" fill="#ffffff" stroke-linecap="butt" opacity="1" stroke-linejoin="round"/>
<path stroke="#ffffff" stroke-width="2" d="M39.4163+85.4184C39.4176+85.5678+39.3487+85.7092+39.2303+85.8004C39.1092+85.9029+38.955+85.958+38.7963+85.9554C38.6821+85.9546+38.5707+85.9198+38.4763+85.8554C38.3712+85.7838+38.289+85.6835+38.2393+85.5664L36.6703+81.9734L28.6593+81.9734L27.0693+85.5664C26.9778+85.8051+26.747+85.9613+26.4913+85.9574C26.336+85.9611+26.185+85.9061+26.0683+85.8034C25.9002+85.6399+25.8473+85.3911+25.9343+85.1734L31.9643+71.6274C32.0647+71.3407+32.3431+71.1554+32.6463+71.1734C32.7963+71.1731+32.9432+71.2162+33.0693+71.2974C33.195+71.3747+33.2924+71.4904+33.3473+71.6274L39.3573+85.1734C39.3957+85.2494+39.4159+85.3333+39.4163+85.4184ZM29.1323+80.8554L36.1743+80.8554L32.6643+72.8634L29.1323+80.8554Z" fill="#ffffff" stroke-linecap="butt" opacity="1" stroke-linejoin="round"/>
<path stroke="#ffffff" stroke-width="2" d="M59.5703+85.4394C59.5727+85.5864+59.5088+85.7267+59.3963+85.8214C59.2872+85.9214+59.1444+85.9767+58.9963+85.9764C58.7634+85.9777+58.5488+85.8504+58.4383+85.6454L55.6513+81.1854C55.3534+80.6586+54.9316+80.2124+54.4223+79.8854C53.8796+79.6229+53.2793+79.5018+52.6773+79.5334L49.8493+79.5334L49.8493+85.2944C49.8595+85.473+49.7967+85.648+49.6753+85.7794C49.4086+86.0111+49.012+86.0111+48.7453+85.7794C48.6227+85.6488+48.5597+85.4732+48.5713+85.2944L48.5713+71.9364C48.5694+71.7633+48.6423+71.5978+48.7713+71.4824C48.9021+71.3589+49.0765+71.2924+49.2563+71.2974L54.3983+71.2974C55.6617+71.2149+56.9132+71.5842+57.9293+72.3394C59.5081+73.9359+59.5892+76.4796+58.1153+78.1734C57.2971+78.9118+56.2439+79.3369+55.1423+79.3734C55.481+79.4886+55.7909+79.6751+56.0513+79.9204C56.3769+80.2377+56.6612+80.5949+56.8973+80.9834L59.4593+85.0924C59.5293+85.1948+59.5678+85.3154+59.5703+85.4394ZM54.3043+78.4394C56.6997+78.4394+57.8973+77.4137+57.8973+75.3624C57.9636+74.5183+57.6358+73.691+57.0093+73.1214C56.2183+72.5735+55.2627+72.3147+54.3033+72.3884L49.8223+72.3884L49.8223+78.4394L54.3043+78.4394Z" fill="#ffffff" stroke-linecap="butt" opacity="1" stroke-linejoin="round"/>
<path stroke="#ffffff" stroke-width="2" d="M79.6023+85.3564C79.591+85.6708+79.3387+85.923+79.0243+85.9344C78.8789+85.9258+78.7409+85.8675+78.6333+85.7694L70.5393+78.8934L70.5393+85.2934C70.546+85.4684+70.4835+85.6391+70.3653+85.7684C70.1051+86.0159+69.6965+86.0159+69.4363+85.7684C69.3176+85.6394+69.255+85.4685+69.2623+85.2934L69.2623+71.8514C69.255+71.6762+69.3176+71.5054+69.4363+71.3764C69.6965+71.1289+70.1051+71.1289+70.3653+71.3764C70.4836+71.5056+70.5461+71.6763+70.5393+71.8514L70.5393+78.0674L78.2203+71.3784C78.3223+71.2718+78.4638+71.2121+78.6113+71.2134C78.7665+71.2148+78.9149+71.2773+79.0243+71.3874C79.1406+71.488+79.2083+71.6336+79.2103+71.7874C79.2046+71.9646+79.1216+72.1305+78.9833+72.2414L71.7973+78.4154L79.3743+84.8984C79.5135+85.0104+79.5968+85.1777+79.6023+85.3564Z" fill="#ffffff" stroke-linecap="butt" opacity="1" stroke-linejoin="round"/>
<path stroke="#ffffff" stroke-width="2" d="M88.7163+85.6703C88.5873+85.5549+88.5144+85.3894+88.5163+85.2163L88.5163+71.9383C88.5144+71.7652+88.5873+71.5997+88.7163+71.4843C88.8472+71.3604+89.0221+71.2939+89.2023+71.2993L97.0483+71.2993C97.2029+71.2908+97.3549+71.3424+97.4723+71.4433C97.5806+71.5525+97.6371+71.7028+97.6273+71.8563C97.6343+72.0029+97.5778+72.1454+97.4723+72.2473C97.355+72.3486+97.2031+72.4006+97.0483+72.3923L89.7823+72.3923L89.7823+77.9063L96.6373+77.9063C96.7916+77.8981+96.9431+77.9497+97.0603+78.0503C97.2673+78.2868+97.2673+78.6399+97.0603+78.8763C96.9433+78.9774+96.7917+79.0293+96.6373+79.0213L89.7823+79.0213L89.7823+84.7613L97.0503+84.7613C97.2033+84.7526+97.3541+84.8003+97.4743+84.8953C97.5835+84.9986+97.6404+85.1455+97.6293+85.2953C97.6392+85.4489+97.5827+85.5992+97.4743+85.7083C97.357+85.8096+97.2051+85.8616+97.0503+85.8533L89.2023+85.8533C89.0224+85.8593+88.8476+85.7934+88.7163+85.6703Z" fill="#ffffff" stroke-linecap="butt" opacity="1" stroke-linejoin="round"/>
<path stroke="#ffffff" stroke-width="2" d="M110.467+85.7703C110.354+85.6385+110.295+85.4689+110.301+85.2953L110.301+72.4103L105.531+72.4103C105.377+72.4186+105.225+72.3666+105.107+72.2653C104.901+72.0286+104.901+71.6761+105.107+71.4393C105.224+71.3375+105.377+71.2857+105.531+71.2953L116.311+71.2953C116.464+71.2906+116.612+71.3459+116.723+71.4493C116.944+71.6722+116.944+72.0314+116.723+72.2543C116.612+72.3582+116.464+72.4139+116.311+72.4093L111.561+72.4093L111.561+85.2943C111.568+85.4694+111.506+85.64+111.387+85.7693C111.266+85.895+111.097+85.9627+110.923+85.9553C110.751+85.9645+110.584+85.8967+110.467+85.7703Z" fill="#ffffff" stroke-linecap="butt" opacity="1" stroke-linejoin="round"/>
<path stroke="#ffffff" stroke-width="2" d="M137.512+85.6703C137.383+85.5549+137.311+85.3894+137.312+85.2163L137.312+71.9383C137.311+71.7652+137.383+71.5997+137.512+71.4843C137.643+71.3606+137.818+71.294+137.997+71.2993L142.002+71.2993C144.707+71.1376+147.278+72.4886+148.679+74.8074C150.08+77.1262+150.08+80.0305+148.679+82.3493C147.278+84.6681+144.707+86.019+142.002+85.8573L137.997+85.8573C137.817+85.8619+137.643+85.7946+137.512+85.6703ZM141.942+84.7413C145.907+84.7413+147.889+82.6833+147.889+78.5673C147.889+74.4647+145.907+72.4133+141.942+72.4133L138.598+72.4133L138.598+84.7413L141.942+84.7413Z" fill="#ffffff" stroke-linecap="butt" opacity="1" stroke-linejoin="round"/>
<path stroke="#ffffff" stroke-width="2" d="M159.214+85.6703C159.085+85.5549+159.012+85.3894+159.014+85.2163L159.014+71.9383C159.012+71.7652+159.085+71.5997+159.214+71.4843C159.345+71.3609+159.52+71.2943+159.699+71.2993L167.546+71.2993C167.701+71.2908+167.853+71.3424+167.97+71.4433C168.078+71.5526+168.134+71.703+168.124+71.8563C168.131+72.0027+168.075+72.1451+167.97+72.2473C167.853+72.3483+167.701+72.3999+167.546+72.3913L160.276+72.3913L160.276+77.9053L167.132+77.9053C167.287+77.8971+167.438+77.9487+167.555+78.0493C167.762+78.2859+167.762+78.6387+167.555+78.8753C167.438+78.9764+167.287+79.0283+167.132+79.0203L160.276+79.0203L160.276+84.7603L167.545+84.7603C167.698+84.751+167.849+84.7988+167.969+84.8943C168.078+84.998+168.135+85.1446+168.124+85.2943C168.134+85.4478+168.078+85.5982+167.969+85.7073C167.852+85.8086+167.7+85.8606+167.545+85.8523L159.698+85.8523C159.519+85.858+159.345+85.7926+159.214+85.6703Z" fill="#ffffff" stroke-linecap="butt" opacity="1" stroke-linejoin="round"/>
<path stroke="#ffffff" stroke-width="2" d="M177.777+85.6874C177.65+85.5884+177.576+85.4357+177.577+85.2744L177.577+71.8534C177.57+71.6785+177.632+71.5077+177.75+71.3784C177.872+71.2527+178.041+71.185+178.215+71.1924C178.391+71.1806+178.564+71.2439+178.69+71.3664C178.807+71.5+178.867+71.6742+178.856+71.8514L178.856+84.7364L185.922+84.7364C186.077+84.7285+186.228+84.7804+186.345+84.8814C186.552+85.118+186.552+85.4708+186.345+85.7074C186.228+85.8085+186.077+85.8604+185.922+85.8524L178.238+85.8524C178.07+85.8547+177.906+85.7961+177.777+85.6874Z" fill="#ffffff" stroke-linecap="butt" opacity="1" stroke-linejoin="round"/>
<path stroke="#ffffff" stroke-width="2" d="M195.371+85.7695C195.253+85.6404+195.191+85.4695+195.198+85.2945L195.198+71.8525C195.19+71.6774+195.253+71.5064+195.371+71.3775C195.556+71.1843+195.841+71.1265+196.087+71.2324C196.332+71.3383+196.485+71.5857+196.471+71.8525L196.471+85.2955C196.485+85.5623+196.332+85.8096+196.087+85.9155C195.841+86.0214+195.556+85.9636+195.371+85.7705L195.371+85.7695Z" fill="#ffffff" stroke-linecap="butt" opacity="1" stroke-linejoin="round"/>
<path stroke="#ffffff" stroke-width="2" d="M218.115+71.1705C218.276+71.1692+218.434+71.2239+218.56+71.3255C218.684+71.413+218.758+71.5553+218.76+71.7075C218.758+71.7938+218.737+71.8786+218.698+71.9555L212.688+85.5015C212.633+85.639+212.536+85.7552+212.41+85.8325C212.283+85.9136+212.136+85.9567+211.986+85.9565C211.844+85.9551+211.706+85.9161+211.586+85.8435C211.451+85.7651+211.346+85.6455+211.286+85.5025L205.298+71.9565C205.259+71.8867+205.238+71.809+205.236+71.7295C205.233+71.5716+205.308+71.4225+205.436+71.3295C205.561+71.2284+205.717+71.1736+205.879+71.1745C206.116+71.1591+206.335+71.3021+206.417+71.5255L212.012+84.1835L217.588+71.5275C217.665+71.3051+217.879+71.16+218.115+71.1705Z" fill="#ffffff" stroke-linecap="butt" opacity="1" stroke-linejoin="round"/>
<path stroke="#ffffff" stroke-width="2" d="M227.688+85.6703C227.559+85.5549+227.486+85.3894+227.488+85.2163L227.488+71.9383C227.486+71.7652+227.559+71.5997+227.688+71.4843C227.819+71.3607+227.994+71.2942+228.174+71.2993L236.021+71.2993C236.176+71.2911+236.327+71.3427+236.444+71.4433C236.553+71.5522+236.61+71.7028+236.599+71.8563C236.606+72.0029+236.55+72.1454+236.444+72.2473C236.327+72.3488+236.176+72.4004+236.021+72.3913L228.752+72.3913L228.752+77.9053L235.607+77.9053C235.762+77.8971+235.913+77.9487+236.03+78.0493C236.238+78.2854+236.238+78.6392+236.03+78.8753C235.913+78.9764+235.762+79.0283+235.607+79.0203L228.752+79.0203L228.752+84.7603L236.021+84.7603C236.174+84.7515+236.325+84.7992+236.445+84.8943C236.554+84.9978+236.611+85.1447+236.599+85.2943C236.61+85.4477+236.553+85.5981+236.445+85.7073C236.328+85.8086+236.176+85.8606+236.021+85.8523L228.174+85.8523C227.995+85.8585+227.82+85.7931+227.688+85.6703Z" fill="#ffffff" stroke-linecap="butt" opacity="1" stroke-linejoin="round"/>
<path stroke="#ffffff" stroke-width="2" d="M257.06+85.4394C257.063+85.5864+256.999+85.7267+256.886+85.8214C256.777+85.9206+256.634+85.9758+256.486+85.9764C256.254+85.9777+256.039+85.8504+255.929+85.6454L253.141+81.1854C252.843+80.6587+252.421+80.2125+251.912+79.8854C251.37+79.6229+250.769+79.5018+250.167+79.5334L247.34+79.5334L247.34+85.2944C247.35+85.473+247.288+85.648+247.166+85.7794C246.9+86.0105+246.504+86.0105+246.237+85.7794C246.115+85.6486+246.052+85.473+246.064+85.2944L246.064+71.9364C246.062+71.7633+246.135+71.5978+246.264+71.4824C246.395+71.3585+246.57+71.2919+246.75+71.2974L251.891+71.2974C253.155+71.215+254.407+71.5843+255.423+72.3394C257.001+73.9362+257.082+76.4784+255.609+78.1724C254.79+78.9107+253.736+79.3357+252.634+79.3724C252.973+79.4875+253.284+79.674+253.544+79.9194C253.869+80.2376+254.153+80.5946+254.39+80.9824L256.95+85.0924C257.02+85.1948+257.058+85.3154+257.06+85.4394ZM251.794+78.4394C254.19+78.4394+255.387+77.4137+255.387+75.3624C255.454+74.5182+255.126+73.6906+254.499+73.1214C253.709+72.5737+252.753+72.3149+251.794+72.3884L247.313+72.3884L247.313+78.4394L251.794+78.4394Z" fill="#ffffff" stroke-linecap="butt" opacity="1" stroke-linejoin="round"/>
<path stroke="#ffffff" stroke-width="2" d="M276.222+71.2114C276.37+71.2103+276.512+71.27+276.614+71.3764C276.724+71.4853+276.784+71.6347+276.78+71.7894C276.782+71.9332+276.731+72.0726+276.635+72.1804L271.473+78.8294L271.473+85.2924C271.479+85.4659+271.42+85.6354+271.307+85.7674C271.191+85.894+271.024+85.9618+270.852+85.9524C270.678+85.9603+270.509+85.8929+270.388+85.7674C270.27+85.6382+270.207+85.4675+270.214+85.2924L270.214+78.7924L265.073+72.1844C264.872+71.9545+264.881+71.6088+265.093+71.3894C265.193+71.2778+265.335+71.2144+265.484+71.2154C265.668+71.2176+265.838+71.3105+265.938+71.4634L270.855+77.8224L275.769+71.4624C275.869+71.3088+276.039+71.2148+276.222+71.2114Z" fill="#ffffff" stroke-linecap="butt" opacity="1" stroke-linejoin="round"/>
</g>
</g>
</svg>
